<mxfile host="app.diagrams.net" modified="2024-04-12T01:57:12.133Z" agent="Mozilla/5.0 (Windows NT 10.0; Win64; x64) AppleWebKit/537.36 (KHTML, like Gecko) Chrome/123.0.0.0 Safari/537.36" version="24.0.3" etag="mTRq5yMwLgOntafPyWE_" type="github">
  <diagram name="第 1 页" id="IcSYJSbjFtDmwZtOyafG">
    <mxGraphModel>
      <root>
        <mxCell id="0" />
        <mxCell id="1" parent="0" />
      </root>
    </mxGraphModel>
  </diagram>
</mxfile>
